# xmcd
#
# Track frame offsets:
# 150
# 19660
# 43361
# 66329
# 85999
# 108685
# 125993
# 139334
# 157120
# 170432
# 192492
# 194098
#
# Disc length: 2803 seconds
#
#
# Revision: 0
# Processed by: cddbd v1.5.2PL0 Copyright (c) Steve Scherf et al.
# Submitted via: FreeRIP 2.53 
#
DISCID=c30af10c
DTITLE=Papadon Washington - The Blues Is My Story
DYEAR=2007
DGENRE=Blues
TTITLE0=Washington's Boogie
TTITLE1=The Blues Is My Story
TTITLE2=I'll Be Good To You Baby
TTITLE3=I Know
TTITLE4=Cherry Red
TTITLE5=Let's Go
TTITLE6=Ain't It Sweet
TTITLE7=What I Got
TTITLE8=Two Tons Of Loving
TTITLE9=Peace In The Valley
TTITLE10=Intro To "When The Saints"
TTITLE11=When The Saints Go Marching In
EXTD=www.donwashington.com
EXTT0=
EXTT1=
EXTT2=
EXTT3=
EXTT4=
EXTT5=
EXTT6=
EXTT7=
EXTT8=
EXTT9=
EXTT10=
EXTT11=
PLAYORDER=
